<mxfile host="app.diagrams.net" agent="Mozilla/5.0 (Windows NT 10.0; Win64; x64) AppleWebKit/537.36 (KHTML, like Gecko) Chrome/136.0.0.0 Safari/537.36 Edg/136.0.0.0" version="27.0.6">
  <diagram id="R2lEEEUBdFMjLlhIrx00" name="Page-1">
    <mxGraphModel dx="713" dy="372" grid="1" gridSize="10" guides="1" tooltips="1" connect="1" arrows="1" fold="1" page="1" pageScale="1" pageWidth="850" pageHeight="1100" math="0" shadow="0" extFonts="Permanent Marker^https://fonts.googleapis.com/css?family=Permanent+Marker">
      <root>
        <mxCell id="0" />
        <mxCell id="1" parent="0" />
        <mxCell id="ODPkU-LS--IO0V1ZdeQo-1" style="edgeStyle=orthogonalEdgeStyle;shape=connector;rounded=0;orthogonalLoop=1;jettySize=auto;html=1;exitX=0.5;exitY=0;exitDx=0;exitDy=0;strokeColor=default;align=center;verticalAlign=middle;fontFamily=Times New Roman;fontSize=11;fontColor=default;labelBackgroundColor=default;startFill=0;endArrow=none;" edge="1" parent="1" source="ODPkU-LS--IO0V1ZdeQo-2">
          <mxGeometry relative="1" as="geometry">
            <mxPoint x="394.93959731543623" y="195.0000000000001" as="targetPoint" />
          </mxGeometry>
        </mxCell>
        <mxCell id="ODPkU-LS--IO0V1ZdeQo-2" value="Categoria&amp;nbsp;" style="whiteSpace=wrap;html=1;align=center;fontFamily=Times New Roman;" vertex="1" parent="1">
          <mxGeometry x="330" y="207.5" width="115" height="40" as="geometry" />
        </mxCell>
        <mxCell id="ODPkU-LS--IO0V1ZdeQo-3" value="" style="ellipse;whiteSpace=wrap;html=1;aspect=fixed;fillColor=#000000;fontFamily=Times New Roman;" vertex="1" parent="1">
          <mxGeometry x="390" y="165" width="10" height="10" as="geometry" />
        </mxCell>
        <mxCell id="ODPkU-LS--IO0V1ZdeQo-4" value="&lt;font&gt;Nome Categoria&lt;/font&gt;" style="text;html=1;align=center;verticalAlign=middle;resizable=0;points=[];autosize=1;strokeColor=none;fillColor=none;fontFamily=Times New Roman;fontSize=12;fontColor=default;labelBackgroundColor=default;" vertex="1" parent="1">
          <mxGeometry x="345" y="140" width="100" height="30" as="geometry" />
        </mxCell>
        <mxCell id="ODPkU-LS--IO0V1ZdeQo-6" style="edgeStyle=orthogonalEdgeStyle;rounded=0;orthogonalLoop=1;jettySize=auto;html=1;exitX=0.5;exitY=0;exitDx=0;exitDy=0;endArrow=none;startFill=0;fontFamily=Times New Roman;" edge="1" parent="1">
          <mxGeometry relative="1" as="geometry">
            <mxPoint x="394.93" y="196" as="sourcePoint" />
            <mxPoint x="395" y="175" as="targetPoint" />
          </mxGeometry>
        </mxCell>
        <mxCell id="ODPkU-LS--IO0V1ZdeQo-7" value="Gerarchia" style="shape=rhombus;perimeter=rhombusPerimeter;whiteSpace=wrap;html=1;align=center;fontFamily=Times New Roman;" vertex="1" parent="1">
          <mxGeometry x="300" y="330" width="120" height="60" as="geometry" />
        </mxCell>
        <mxCell id="ODPkU-LS--IO0V1ZdeQo-9" style="edgeStyle=orthogonalEdgeStyle;shape=connector;rounded=0;orthogonalLoop=1;jettySize=auto;html=1;exitX=0;exitY=0.5;exitDx=0;exitDy=0;entryX=0;entryY=0.438;entryDx=0;entryDy=0;entryPerimeter=0;strokeColor=default;align=center;verticalAlign=middle;fontFamily=Times New Roman;fontSize=11;fontColor=default;labelBackgroundColor=default;startFill=0;endArrow=none;" edge="1" parent="1" source="ODPkU-LS--IO0V1ZdeQo-7" target="ODPkU-LS--IO0V1ZdeQo-2">
          <mxGeometry relative="1" as="geometry" />
        </mxCell>
        <mxCell id="ODPkU-LS--IO0V1ZdeQo-11" value="(0,1)" style="text;html=1;align=center;verticalAlign=middle;resizable=0;points=[];autosize=1;strokeColor=none;fillColor=none;fontFamily=Times New Roman;fontSize=11;fontColor=default;labelBackgroundColor=default;" vertex="1" parent="1">
          <mxGeometry x="290" y="200" width="40" height="30" as="geometry" />
        </mxCell>
        <mxCell id="ODPkU-LS--IO0V1ZdeQo-13" value="macrocategoria" style="text;html=1;align=center;verticalAlign=middle;resizable=0;points=[];autosize=1;strokeColor=none;fillColor=none;fontFamily=Times New Roman;fontSize=11;fontColor=default;labelBackgroundColor=default;" vertex="1" parent="1">
          <mxGeometry x="200" y="240" width="90" height="30" as="geometry" />
        </mxCell>
        <mxCell id="ODPkU-LS--IO0V1ZdeQo-16" value="(0,n)" style="text;html=1;align=center;verticalAlign=middle;resizable=0;points=[];autosize=1;strokeColor=none;fillColor=none;fontFamily=Times New Roman;fontSize=11;fontColor=default;labelBackgroundColor=default;" vertex="1" parent="1">
          <mxGeometry x="445" y="200" width="40" height="30" as="geometry" />
        </mxCell>
        <mxCell id="ODPkU-LS--IO0V1ZdeQo-17" value="sottocategoria" style="text;html=1;align=center;verticalAlign=middle;resizable=0;points=[];autosize=1;strokeColor=none;fillColor=none;fontFamily=Times New Roman;fontSize=11;fontColor=default;labelBackgroundColor=default;" vertex="1" parent="1">
          <mxGeometry x="470" y="240" width="90" height="30" as="geometry" />
        </mxCell>
        <mxCell id="ODPkU-LS--IO0V1ZdeQo-18" style="edgeStyle=orthogonalEdgeStyle;rounded=0;orthogonalLoop=1;jettySize=auto;html=1;exitX=1;exitY=0.5;exitDx=0;exitDy=0;entryX=1.001;entryY=0.392;entryDx=0;entryDy=0;entryPerimeter=0;endArrow=none;startFill=0;" edge="1" parent="1" source="ODPkU-LS--IO0V1ZdeQo-7" target="ODPkU-LS--IO0V1ZdeQo-2">
          <mxGeometry relative="1" as="geometry">
            <Array as="points">
              <mxPoint x="480" y="360" />
              <mxPoint x="480" y="223" />
            </Array>
          </mxGeometry>
        </mxCell>
      </root>
    </mxGraphModel>
  </diagram>
</mxfile>
